<?xml version="1.0" encoding="UTF-8" standalone="no"?>
<svg
   xmlns:dc="http://purl.org/dc/elements/1.1/"
   xmlns:cc="http://creativecommons.org/ns#"
   xmlns:rdf="http://www.w3.org/1999/02/22-rdf-syntax-ns#"
   xmlns:svg="http://www.w3.org/2000/svg"
   xmlns="http://www.w3.org/2000/svg"
   xmlns:sodipodi="http://sodipodi.sourceforge.net/DTD/sodipodi-0.dtd"
   xmlns:inkscape="http://www.inkscape.org/namespaces/inkscape"
   inkscape:export-ydpi="36.26128"
   inkscape:export-xdpi="36.26128"
   inkscape:export-filename="/Users/Will/Google Drive File Stream/My Drive/website/logo-small.png"
   sodipodi:docname="opvia_logo-path.svg"
   inkscape:version="1.0 (4035a4f, 2020-05-01)"
   id="svg8"
   version="1.1"
   viewBox="0 0 132.29166 52.916668"
   height="200"
   width="500">
  <defs
     id="defs2" />
  <sodipodi:namedview
     inkscape:document-rotation="0"
     inkscape:window-maximized="1"
     inkscape:window-y="23"
     inkscape:window-x="1680"
     inkscape:window-height="1035"
     inkscape:window-width="1920"
     units="px"
     showgrid="false"
     inkscape:current-layer="layer1"
     inkscape:document-units="mm"
     inkscape:cy="277.15729"
     inkscape:cx="204.92249"
     inkscape:zoom="0.98994949"
     inkscape:pageshadow="2"
     inkscape:pageopacity="0.0"
     borderopacity="1.0"
     bordercolor="#666666"
     pagecolor="#ffffff"
     id="base" />
  <metadata
     id="metadata5">
    <rdf:RDF>
      <cc:Work
         rdf:about="">
        <dc:format>image/svg+xml</dc:format>
        <dc:type
           rdf:resource="http://purl.org/dc/dcmitype/StillImage" />
        <dc:title></dc:title>
      </cc:Work>
    </rdf:RDF>
  </metadata>
  <g
     transform="translate(0,-244.08333)"
     id="layer1"
     inkscape:groupmode="layer"
     inkscape:label="Layer 1">
    <g
       style="font-style:normal;font-variant:normal;font-weight:normal;font-stretch:normal;font-size:44.8578px;line-height:125%;font-family:Atlanta;-inkscape-font-specification:'Atlanta, Normal';font-variant-ligatures:normal;font-variant-caps:normal;font-variant-numeric:normal;font-feature-settings:normal;text-align:start;letter-spacing:0px;word-spacing:0px;writing-mode:lr-tb;text-anchor:start;fill:#26b4a3;fill-opacity:1;stroke:none;stroke-width:1.79424px;stroke-linecap:butt;stroke-linejoin:miter;stroke-opacity:1"
       id="text4506"
       transform="scale(0.97827114,1.0222115)"
       aria-label="Opvia">
      <path
         id="path877"
         style="font-style:normal;font-variant:normal;font-weight:normal;font-stretch:normal;font-size:44.8578px;font-family:Atlanta;-inkscape-font-specification:'Atlanta, Normal';font-variant-ligatures:normal;font-variant-caps:normal;font-variant-numeric:normal;font-feature-settings:normal;text-align:start;writing-mode:lr-tb;text-anchor:start;fill:#26b4a3;fill-opacity:1;stroke:none;stroke-width:1.79424px;stroke-opacity:1"
         d="m 19.947334,247.81212 q -2.803612,0 -5.366289,1.07326 -2.562677,1.05135 -4.533967,3.02264 -1.9712903,1.97129 -3.0445482,4.55587 -1.0513547,2.56268 -1.0513547,5.36629 0,2.80361 1.0513547,5.36629 1.0732579,2.56268 3.0445482,4.53397 1.97129,1.97129 4.533967,3.04454 2.562677,1.05136 5.366289,1.05136 2.803613,0 5.36629,-1.05136 2.562677,-1.07325 4.533967,-3.06645 1.97129,-1.97129 3.022645,-4.53396 1.073257,-2.56268 1.073257,-5.34439 0,-2.80361 -1.073257,-5.36629 -1.051355,-2.56268 -3.022645,-4.53397 -1.97129,-1.99319 -4.533967,-3.04454 -2.562677,-1.07326 -5.36629,-1.07326 z M 2.3590467,261.83018 q 0,-3.48261 1.2922901,-6.61477 1.3141933,-3.13216 3.745451,-5.54152 2.4531609,-2.40935 5.6948382,-3.70164 3.241677,-1.29229 6.855708,-1.29229 3.614032,0 6.855709,1.29229 3.241677,1.29229 5.694838,3.70164 2.431257,2.40936 3.723548,5.54152 1.314193,3.13216 1.314193,6.61477 0,3.46071 -1.314193,6.59287 -1.314194,3.13216 -3.745451,5.54152 -2.453161,2.40935 -5.694838,3.70164 -3.241677,1.29229 -6.833806,1.29229 -3.592128,0 -6.833805,-1.29229 -3.241677,-1.29229 -5.6948379,-3.70164 -2.4312577,-2.40936 -3.7454511,-5.54152 -1.3141933,-3.13216 -1.3141933,-6.59287 z" />
      <path
         id="path879"
         style="font-style:normal;font-variant:normal;font-weight:normal;font-stretch:normal;font-size:44.8578px;font-family:Atlanta;-inkscape-font-specification:'Atlanta, Normal';font-variant-ligatures:normal;font-variant-caps:normal;font-variant-numeric:normal;font-feature-settings:normal;text-align:start;writing-mode:lr-tb;text-anchor:start;fill:#26b4a3;fill-opacity:1;stroke:none;stroke-width:1.79424px;stroke-opacity:1"
         d="m 55.386748,253.37554 q 2.562677,0 4.906322,0.96374 2.365548,0.94184 4.161612,2.716 1.839871,1.79606 2.825516,4.16161 0.985645,2.34364 0.985645,4.95013 0,2.60648 -0.985645,4.97203 -0.985645,2.34364 -2.825516,4.13971 -1.796064,1.77416 -4.161612,2.7379 -2.343645,0.94184 -4.906322,0.94184 -2.737903,0 -5.191064,-1.09516 -2.453161,-1.09516 -4.271128,-3.11026 v 12.63816 h -3.416903 v -33.46812 h 3.416903 v 3.65783 q 1.817967,-2.01509 4.271128,-3.11025 2.453161,-1.09516 5.191064,-1.09516 z m 9.462192,12.79148 q 0,-4.20542 -2.694096,-6.96523 -2.694097,-2.78171 -6.768096,-2.78171 -4.073999,0 -6.768096,2.78171 -2.694096,2.78171 -2.694096,6.96523 0,4.18351 2.694096,6.96522 2.694097,2.78171 6.768096,2.78171 4.073999,0 6.768096,-2.7598 2.694096,-2.78171 2.694096,-6.98713 z" />
      <path
         id="path881"
         style="font-style:normal;font-variant:normal;font-weight:normal;font-stretch:normal;font-size:44.8578px;font-family:Atlanta;-inkscape-font-specification:'Atlanta, Normal';font-variant-ligatures:normal;font-variant-caps:normal;font-variant-numeric:normal;font-feature-settings:normal;text-align:start;writing-mode:lr-tb;text-anchor:start;fill:#26b4a3;fill-opacity:1;stroke:none;stroke-width:1.79424px;stroke-opacity:1"
         d="m 80.663069,278.41092 -10.316418,-24.4878 h 3.723548 l 8.388934,20.08525 8.388934,-20.08525 h 3.723548 l -10.316418,24.4878 z" />
      <path
         id="path883"
         style="font-style:normal;font-variant:normal;font-weight:normal;font-stretch:normal;font-size:44.8578px;font-family:Atlanta;-inkscape-font-specification:'Atlanta, Normal';font-variant-ligatures:normal;font-variant-caps:normal;font-variant-numeric:normal;font-feature-settings:normal;text-align:start;writing-mode:lr-tb;text-anchor:start;fill:#26b4a3;fill-opacity:1;stroke:none;stroke-width:1.79424px;stroke-opacity:1"
         d="m 97.703772,245.20563 h 3.416898 v 4.13971 h -3.416898 z m 0,33.20529 v -24.4878 h 3.416898 v 24.4878 z" />
      <path
         id="path885"
         style="font-style:normal;font-variant:normal;font-weight:normal;font-stretch:normal;font-size:44.8578px;font-family:Atlanta;-inkscape-font-specification:'Atlanta, Normal';font-variant-ligatures:normal;font-variant-caps:normal;font-variant-numeric:normal;font-feature-settings:normal;text-align:start;writing-mode:lr-tb;text-anchor:start;fill:#26b4a3;fill-opacity:1;stroke:none;stroke-width:1.79424px;stroke-opacity:1"
         d="m 118.62135,256.42008 q -4.074,0 -6.76809,2.78171 -2.6941,2.75981 -2.6941,6.96523 0,4.20542 2.6941,6.98713 2.69409,2.7598 6.76809,2.7598 4.074,0 6.7681,-2.78171 2.6941,-2.78171 2.6941,-6.96522 0,-4.18352 -2.6941,-6.96523 -2.6941,-2.78171 -6.7681,-2.78171 z m -12.87909,9.74694 q 0,-2.60649 0.98564,-4.95013 0.98565,-2.36555 2.82552,-4.16161 1.79606,-1.77416 4.13971,-2.716 2.36555,-0.96374 4.92822,-0.96374 2.73791,0 5.19107,1.09516 2.45316,1.09516 4.27113,3.11025 v -3.65783 h 3.395 v 24.4878 h -3.395 v -3.65784 q -1.81797,2.0151 -4.27113,3.11026 -2.45316,1.09516 -5.19107,1.09516 -2.56267,0 -4.92822,-0.94184 -2.34365,-0.96374 -4.13971,-2.7379 -1.83987,-1.79607 -2.82552,-4.13971 -0.98564,-2.36555 -0.98564,-4.97203 z" />
    </g>
    <path
       inkscape:connector-curvature="0"
       id="path840"
       d="m 7.2514418,274.588 18.6430482,-20.58909 2.416692,1.63405 -16.571599,25.49126 -3.7976581,-1.30726 z"
       style="fill:#26b4a3;fill-opacity:1;fill-rule:evenodd;stroke:none;stroke-width:0.33252385px;stroke-linecap:butt;stroke-linejoin:miter;stroke-opacity:1" />
  </g>
</svg>
